<svg width="101" height="72" viewBox="0 0 101 72" fill="none" xmlns="http://www.w3.org/2000/svg">
<rect width="100.227" height="71.4578" rx="5.76117" fill="#003D79"/>
<path fill-rule="evenodd" clip-rule="evenodd" d="M7.24973 37.8455C7.24973 36.564 7.22712 35.4886 7.1593 34.5297H9.51229L9.62261 36.1771H9.68863C10.2219 35.3065 11.1972 34.277 13.0164 34.277C14.4364 34.277 15.5455 35.1024 16.0106 36.337H16.0563C16.434 35.7196 16.8762 35.2625 17.386 34.9411C17.9856 34.5071 18.6735 34.277 19.5609 34.277C21.3573 34.277 23.1751 35.5347 23.1751 39.1033V45.6667H20.5135V39.5156C20.5135 37.6633 19.8934 36.564 18.5854 36.564C17.6521 36.564 16.9637 37.2514 16.6773 38.0523C16.6099 38.3259 16.5434 38.6692 16.5434 38.9872V45.6667H13.881V39.2172C13.881 37.6633 13.283 36.564 12.0183 36.564C10.9978 36.564 10.311 37.3887 10.0664 38.1646C9.95472 38.4408 9.90995 38.7602 9.90995 39.0797V45.6667H7.24973V37.8455Z" fill="white"/>
<path fill-rule="evenodd" clip-rule="evenodd" d="M33.545 42.9916C33.545 43.9973 33.5894 44.9791 33.7004 45.6672H31.2373L31.0605 44.4325H30.9931C30.328 45.3024 29.1967 45.9189 27.7994 45.9189C25.625 45.9189 24.4055 44.2964 24.4055 42.603C24.4055 39.789 26.8225 38.3723 30.8156 38.3949V38.2113C30.8156 37.4791 30.5269 36.2678 28.6196 36.2678C27.5543 36.2678 26.4447 36.6111 25.7131 37.0906L25.1801 35.2625C25.9801 34.7583 27.3789 34.2775 29.0855 34.2775C32.5474 34.2775 33.545 36.5431 33.545 38.9662V42.9916ZM30.8821 40.2246C28.9526 40.1785 27.1119 40.6129 27.1119 42.3056C27.1119 43.4023 27.7993 43.9064 28.6648 43.9064C29.7504 43.9064 30.5502 43.1743 30.7935 42.3741C30.8595 42.1683 30.8821 41.9387 30.8821 41.7565V40.2246Z" fill="white"/>
<path fill-rule="evenodd" clip-rule="evenodd" d="M35.4315 37.8455C35.4315 36.564 35.4071 35.4886 35.3424 34.5297H37.7361L37.8699 36.199H37.9355C38.4019 35.331 39.5775 34.277 41.3739 34.277C43.26 34.277 45.2119 35.5347 45.2119 39.0576V45.6667H42.4839V39.3785C42.4839 37.7765 41.9072 36.564 40.4207 36.564C39.3338 36.564 38.5798 37.3647 38.2906 38.2112C38.2034 38.4634 38.1803 38.8072 38.1803 39.1252V45.6667H35.4315V37.8455Z" fill="white"/>
<path fill-rule="evenodd" clip-rule="evenodd" d="M57.041 30.0547V42.5329C57.041 43.6762 57.0847 44.9134 57.1292 45.6672H54.6889L54.5798 43.9065H54.5345C53.8909 45.142 52.5801 45.9189 51.0069 45.9189C48.4348 45.9189 46.3934 43.6552 46.3934 40.2247C46.3707 36.4965 48.6333 34.2775 51.2284 34.2775C52.7142 34.2775 53.7799 34.9187 54.2671 35.7427H54.3121V30.0547H57.041ZM54.312 39.1709C54.312 38.9445 54.2892 38.6688 54.2464 38.4408C54.002 37.343 53.1364 36.4505 51.8941 36.4505C50.1418 36.4505 49.1656 38.0523 49.1656 40.1335C49.1656 42.1683 50.1418 43.6552 51.872 43.6552C52.9806 43.6552 53.9573 42.8778 54.2231 41.666C54.2892 41.4134 54.312 41.1393 54.312 40.8409V39.1709Z" fill="white"/>
<path fill-rule="evenodd" clip-rule="evenodd" d="M58.969 45.6666H61.7224V34.5303H58.969V45.6666Z" fill="white"/>
<path fill-rule="evenodd" clip-rule="evenodd" d="M63.6505 38.1198C63.6505 36.6111 63.6274 35.5347 63.5612 34.5294H65.9352L66.022 36.6556H66.114C66.6455 35.0776 67.9102 34.5294 69.0631 34.5294C69.3288 34.5294 69.4839 34.4825 69.7063 34.5294V37.0001C69.4839 36.9544 69.2404 36.9087 68.9076 36.9087C67.5991 36.9087 66.7111 37.7769 66.4674 39.034C66.4242 39.2857 66.3794 39.5843 66.3794 39.9059V45.6671H63.6505V38.1198Z" fill="white"/>
<path fill-rule="evenodd" clip-rule="evenodd" d="M70.9708 45.6666H73.7201V34.5303H70.9708V45.6666Z" fill="white"/>
<path fill-rule="evenodd" clip-rule="evenodd" d="M70.3203 21.0652C68.6688 22.0512 64.7735 24.3545 63.3194 25.2123V25.2123C62.4332 25.6777 60.3807 25.881 59.2198 24.2671V24.2671C59.199 24.238 57.6757 22.2756 57.6135 22.2017V22.2017C57.5699 22.1495 56.5851 20.6436 54.3908 20.5965V20.5965C54.0666 20.5886 52.4547 20.5797 50.8819 21.5013V21.5013C48.7914 22.7327 43.9294 25.5985 43.9294 25.5985V25.5985C43.9281 25.5985 43.9281 25.601 43.9256 25.601V25.601C41.9271 26.78 40.3699 27.6979 40.3699 27.6979V27.6979L42.2097 30.0276C43.0703 31.1293 45.0112 31.9817 46.6943 30.9855V30.9855C46.6943 30.9855 52.9134 27.2725 52.9362 27.2618V27.2618C55.6259 25.7409 57.7012 25.7409 59.0787 26.3068V26.3068C60.3151 26.8455 61.3908 28.1876 61.3908 28.1876V28.1876C61.3908 28.1876 62.7965 29.9837 63.0445 30.2979V30.2979C63.8444 31.313 65.1683 30.9142 65.1683 30.9142V30.9142C65.1683 30.9142 65.6588 30.8569 66.3983 30.4042V30.4042C66.3983 30.4042 72.4223 26.8031 72.4262 26.8019V26.8019C74.339 25.6449 76.0933 25.4288 76.9899 25.5139V25.5139C79.7982 25.777 80.6707 27.7997 81.8883 29.2108V29.2108C82.6054 30.0408 83.2524 30.5121 84.242 30.4884V30.4884C84.8922 30.4741 85.6267 30.0676 85.735 29.9942V29.9942L92.9486 25.7022C92.9486 25.7022 92.2084 24.5529 90.6926 22.7646V22.7646C89.3359 21.1692 87.8949 21.891 86.746 22.4777V22.4777C86.2633 22.7239 84.5144 23.9233 82.7817 24.7601V24.7601C81.5471 25.3561 79.7738 25.1768 78.8019 23.9387V23.9387C78.7438 23.8634 77.1715 21.9008 77.0062 21.6594V21.6594C76.3716 20.8398 75.1334 20.1059 73.5466 20.1059V20.1059C72.5817 20.1059 71.4868 20.3772 70.3203 21.0652" fill="url(#paint0_linear_806_1110)"/>
<defs>
<linearGradient id="paint0_linear_806_1110" x1="40.3699" y1="31.4267" x2="92.9486" y2="31.4267" gradientUnits="userSpaceOnUse">
<stop stop-color="#FFCA06"/>
<stop offset="0.330844" stop-color="#FBAA18"/>
<stop offset="0.694742" stop-color="#FFC907"/>
<stop offset="1" stop-color="#FAA619"/>
</linearGradient>
</defs>
</svg>
